<svg width="414" height="414" viewBox="0 0 414 414" fill="none" xmlns="http://www.w3.org/2000/svg">
<mask id="mask0" mask-type="alpha" maskUnits="userSpaceOnUse" x="0" y="0" width="414" height="414">
<circle cx="207" cy="207" r="207" transform="rotate(-180 207 207)" fill="white"/>
</mask>
<g mask="url(#mask0)">
<path d="M36.7999 515.2L570.4 29.9002" stroke="white" stroke-width="2"/>
<path d="M-41.4 414L492.2 -71.3" stroke="white" stroke-width="2"/>
<path d="M-151.8 363.4L381.8 -121.9" stroke="white" stroke-width="2"/>
<path d="M32.2001 483L565.8 -2.29999" stroke="white" stroke-width="2"/>
<path d="M-46.0001 381.8L487.6 -103.5" stroke="white" stroke-width="2"/>
<path d="M-156.4 331.2L377.2 -154.1" stroke="white" stroke-width="2"/>
<path d="M27.5999 450.8L561.2 -34.5002" stroke="white" stroke-width="2"/>
<path d="M-50.6002 349.6L483 -135.7" stroke="white" stroke-width="2"/>
<path d="M-161 299L372.6 -186.3" stroke="white" stroke-width="2"/>
<path d="M13.8001 427.8L547.4 -57.4997" stroke="white" stroke-width="2"/>
<path d="M-64.4 326.6L469.2 -158.7" stroke="white" stroke-width="2"/>
<path d="M-174.8 276L358.8 -209.3" stroke="white" stroke-width="2"/>
<path d="M110.4 483L644 -2.29999" stroke="white" stroke-width="2"/>
<path d="M147.2 483L680.8 -2.29999" stroke="white" stroke-width="2"/>
<path d="M32.2001 381.8L565.8 -103.5" stroke="white" stroke-width="2"/>
</g>
</svg>
