<svg width="100" height="100" viewBox="0 0 100 100" fill="none" xmlns="http://www.w3.org/2000/svg">
<path d="M32.3833 10.1624L36.8666 8.72903C41.0708 7.38736 45.5624 9.55819 47.3624 13.7999L50.9458 22.2499C52.5041 25.929 51.6374 30.2582 48.8041 32.9499L40.9083 40.4415C41.3958 44.9249 42.9041 49.3374 45.4291 53.679C47.8269 57.8796 51.0431 61.5563 54.8874 64.4915L64.3708 61.3249C67.9624 60.129 71.8791 61.5082 74.0791 64.7457L79.2166 72.2874C81.7791 76.054 81.3166 81.2457 78.1374 84.4374L74.7333 87.8582C71.3416 91.2624 66.4958 92.4999 62.0166 91.0999C51.4333 87.7999 41.7124 78.004 32.8374 61.7124C23.9499 45.3957 20.8124 31.5457 23.4291 20.179C24.5291 15.3957 27.9333 11.5832 32.3833 10.1624V10.1624Z" fill="black"/>
</svg>
